<?xml version="1.0" encoding="utf-8"?>
<!-- Generator: Adobe Illustrator 27.2.0, SVG Export Plug-In . SVG Version: 6.00 Build 0)  -->
<svg version="1.1" id="Calque_1" xmlns="http://www.w3.org/2000/svg" xmlns:xlink="http://www.w3.org/1999/xlink" x="0px" y="0px"
	 viewBox="0 0 32 32" style="enable-background:new 0 0 32 32;" xml:space="preserve">
<style type="text/css">
	.st0{fill:#0CB859;}
	.st1{fill:url(#SVGID_1_);}
	.st2{fill:url(#SVGID_00000176740083372370788800000004023295039700927403_);}
</style>
<g>
	<g>
		<g>
			<path class="st0" d="M14.55,12.19c-0.21-0.16-0.44-0.29-0.68-0.4c-0.54-0.24-1.25-0.48-2.13-0.72c-0.73-0.2-1.3-0.39-1.7-0.55
				c-0.4-0.16-0.74-0.39-1.02-0.7C8.74,9.51,8.6,9.12,8.6,8.63c0-0.68,0.23-1.21,0.69-1.58c0.46-0.38,1.06-0.57,1.79-0.57
				c0.78,0,1.41,0.2,1.88,0.59c0.47,0.39,0.74,0.84,0.81,1.35h1.92c-0.1-1.04-0.55-1.87-1.35-2.5c-0.8-0.63-1.83-0.94-3.08-0.94
				c-0.87,0-1.64,0.15-2.31,0.46C8.26,5.75,7.74,6.18,7.37,6.75C7,7.31,6.81,7.96,6.81,8.69c0,0.83,0.19,1.5,0.57,1.99
				c0.38,0.49,0.83,0.85,1.36,1.09c0.53,0.23,1.24,0.46,2.12,0.69c0.72,0.19,1.29,0.37,1.71,0.54c0.42,0.17,0.77,0.41,1.06,0.73
				c0.09,0.11,0.17,0.22,0.23,0.35c0.13,0.26,0.19,0.56,0.19,0.9c0,0.65-0.24,1.19-0.72,1.6c-0.15,0.13-0.32,0.24-0.5,0.33
				c-0.41,0.2-0.9,0.29-1.47,0.29c-0.87,0-1.53-0.21-1.99-0.64c-0.45-0.43-0.71-0.96-0.78-1.58H6.74c0.01,0.73,0.22,1.37,0.61,1.93
				c0.4,0.56,0.94,0.99,1.64,1.31c0.7,0.31,1.49,0.47,2.37,0.47c0.29,0,0.57-0.02,0.84-0.05c0.37-0.05,0.72-0.13,1.04-0.25l2-5.49
				C15.03,12.61,14.8,12.38,14.55,12.19z"/>
		</g>
		<g>
			<path class="st0" d="M18.82,8.42L18.6,9.02v1h1.84v12.29h1.77V8.42H18.82z"/>
		</g>
		<linearGradient id="SVGID_1_" gradientUnits="userSpaceOnUse" x1="25.9745" y1="4.285" x2="18.8227" y2="25.2798">
			<stop  offset="0" style="stop-color:#0CB859"/>
			<stop  offset="0.0335" style="stop-color:#0A9B4B"/>
			<stop  offset="0.0839" style="stop-color:#08773A"/>
			<stop  offset="0.1405" style="stop-color:#06572A"/>
			<stop  offset="0.2032" style="stop-color:#043B1D"/>
			<stop  offset="0.274" style="stop-color:#022512"/>
			<stop  offset="0.3566" style="stop-color:#01140A"/>
			<stop  offset="0.4588" style="stop-color:#010904"/>
			<stop  offset="0.6021" style="stop-color:#000201"/>
			<stop  offset="1" style="stop-color:#000000"/>
		</linearGradient>
		<path class="st1" d="M27.4,8.59c-0.62-1.47-1.51-2.8-2.65-3.93c-0.86-0.86-1.83-1.58-2.89-2.15l0.29-0.8l-0.42-1.45l-0.67,1.85
			l-0.1,0.29l-0.12,0.33l-0.1,0.29l-1.97,5.41l-0.22,0.59l-5.61,15.43l-0.1,0.28l-0.11,0.29l-0.1,0.28
			c0.29,0.08,0.58,0.15,0.87,0.21c0.82,0.17,1.66,0.26,2.51,0.26c1.67,0,3.29-0.33,4.81-0.97c1.47-0.62,2.8-1.51,3.93-2.65
			c1.14-1.14,2.03-2.46,2.65-3.93c0.64-1.52,0.97-3.14,0.97-4.81C28.37,11.73,28.04,10.11,27.4,8.59z M19.13,10.02l0.58-1.59
			l1.82-5.01c3.51,1.95,5.9,5.71,5.9,10c0,6.31-5.13,11.44-11.44,11.44c-0.75,0-1.48-0.07-2.18-0.21L19.13,10.02z M16,25.47
			c-0.83,0-1.63-0.08-2.41-0.24l0.11-0.29c0.75,0.15,1.51,0.22,2.29,0.22c1.58,0,3.12-0.31,4.57-0.92c1.4-0.59,2.65-1.44,3.73-2.52
			c1.08-1.08,1.92-2.33,2.52-3.73c0.61-1.45,0.92-2.98,0.92-4.57c0-1.58-0.31-3.12-0.92-4.57c-0.59-1.4-1.44-2.65-2.52-3.73
			c-0.79-0.79-1.68-1.46-2.65-1.99l0.12-0.33c3.76,2.05,6.31,6.03,6.31,10.61C28.07,20.06,22.65,25.47,16,25.47z"/>
		
			<linearGradient id="SVGID_00000090995986823558628820000012052367213085104309_" gradientUnits="userSpaceOnUse" x1="5.4267" y1="23.3684" x2="13.1245" y2="1.8576">
			<stop  offset="0" style="stop-color:#0CB859"/>
			<stop  offset="0.0335" style="stop-color:#0A9B4B"/>
			<stop  offset="0.0839" style="stop-color:#08773A"/>
			<stop  offset="0.1405" style="stop-color:#06572A"/>
			<stop  offset="0.2032" style="stop-color:#043B1D"/>
			<stop  offset="0.274" style="stop-color:#022512"/>
			<stop  offset="0.3566" style="stop-color:#01140A"/>
			<stop  offset="0.4588" style="stop-color:#010904"/>
			<stop  offset="0.6021" style="stop-color:#000201"/>
			<stop  offset="1" style="stop-color:#000000"/>
		</linearGradient>
		<path style="fill:url(#SVGID_00000090995986823558628820000012052367213085104309_);" d="M18.51,1.29
			C17.69,1.12,16.85,1.03,16,1.03c-1.67,0-3.29,0.33-4.81,0.97c-1.47,0.62-2.8,1.51-3.93,2.65C6.12,5.79,5.23,7.12,4.6,8.59
			c-0.64,1.52-0.97,3.14-0.97,4.81c0,1.67,0.33,3.29,0.97,4.81c0.62,1.47,1.51,2.8,2.65,3.93c0.86,0.86,1.83,1.58,2.89,2.15
			l-0.3,0.82l0.43,1.43l0.67-1.85l0.1-0.29l0.1-0.29l0.1-0.29l1.99-5.46l2-5.49L19.06,2.4l0.1-0.28l0.12-0.33l0.1-0.28
			C19.1,1.42,18.81,1.35,18.51,1.29z M14.55,12.19l-0.68,1.88l-1.03,2.83l-0.63,1.72l-1.75,4.81c-3.52-1.95-5.91-5.71-5.91-10.01
			c0-6.31,5.13-11.44,11.44-11.44c0.75,0,1.49,0.07,2.2,0.21L14.55,12.19z M18.29,1.9c-0.75-0.15-1.52-0.23-2.31-0.23
			c-1.58,0-3.12,0.31-4.57,0.92c-1.4,0.59-2.65,1.44-3.73,2.52C6.61,6.19,5.76,7.45,5.17,8.85c-0.61,1.45-0.92,2.98-0.92,4.57
			c0,1.58,0.31,3.12,0.92,4.57c0.59,1.4,1.44,2.65,2.52,3.73c0.8,0.8,1.69,1.47,2.67,2l-0.1,0.29c-3.76-2.05-6.31-6.03-6.31-10.61
			C3.93,6.75,9.35,1.33,16,1.33c0.83,0,1.63,0.08,2.41,0.24L18.29,1.9z"/>
	</g>
	<g>
		<path d="M4.1,31.65c-0.14-0.06-0.26-0.15-0.34-0.27c-0.08-0.11-0.12-0.25-0.13-0.4h0.38c0.01,0.13,0.07,0.24,0.16,0.33
			c0.09,0.09,0.23,0.13,0.41,0.13c0.17,0,0.31-0.04,0.4-0.13c0.1-0.09,0.15-0.2,0.15-0.33c0-0.11-0.03-0.19-0.09-0.26
			C5,30.66,4.92,30.61,4.84,30.57c-0.09-0.03-0.2-0.07-0.35-0.11c-0.18-0.05-0.33-0.09-0.44-0.14c-0.11-0.05-0.2-0.12-0.28-0.22
			c-0.08-0.1-0.12-0.24-0.12-0.41c0-0.15,0.04-0.28,0.11-0.4c0.08-0.12,0.18-0.21,0.32-0.27c0.14-0.06,0.3-0.09,0.48-0.09
			c0.26,0,0.47,0.06,0.63,0.19c0.16,0.13,0.26,0.3,0.28,0.51H5.08c-0.01-0.11-0.07-0.2-0.17-0.28c-0.1-0.08-0.23-0.12-0.39-0.12
			c-0.15,0-0.27,0.04-0.37,0.12c-0.09,0.08-0.14,0.19-0.14,0.33c0,0.1,0.03,0.18,0.08,0.24c0.06,0.06,0.13,0.11,0.21,0.14
			c0.08,0.03,0.2,0.07,0.35,0.11c0.18,0.05,0.33,0.1,0.44,0.15c0.11,0.05,0.21,0.12,0.28,0.22c0.08,0.1,0.12,0.24,0.12,0.41
			c0,0.13-0.04,0.26-0.11,0.38c-0.07,0.12-0.18,0.21-0.32,0.29c-0.14,0.07-0.3,0.11-0.49,0.11C4.41,31.74,4.24,31.71,4.1,31.65z"/>
		<path d="M6.58,31.56c-0.21-0.12-0.38-0.29-0.5-0.5c-0.12-0.21-0.18-0.46-0.18-0.72c0-0.27,0.06-0.51,0.18-0.72
			c0.12-0.21,0.29-0.38,0.5-0.5c0.21-0.12,0.44-0.18,0.7-0.18c0.26,0,0.49,0.06,0.7,0.18c0.21,0.12,0.38,0.29,0.5,0.5
			c0.12,0.21,0.18,0.46,0.18,0.73c0,0.27-0.06,0.51-0.18,0.73c-0.12,0.21-0.29,0.38-0.5,0.5c-0.21,0.12-0.44,0.18-0.7,0.18
			C7.02,31.74,6.79,31.68,6.58,31.56z M7.8,31.3c0.15-0.09,0.27-0.22,0.36-0.38c0.09-0.17,0.13-0.36,0.13-0.58
			c0-0.22-0.04-0.41-0.13-0.58c-0.09-0.16-0.21-0.29-0.36-0.38c-0.15-0.09-0.33-0.13-0.52-0.13c-0.19,0-0.37,0.04-0.52,0.13
			c-0.15,0.09-0.27,0.22-0.36,0.38c-0.09,0.16-0.13,0.36-0.13,0.58c0,0.22,0.04,0.41,0.13,0.58c0.09,0.17,0.21,0.29,0.36,0.38
			c0.15,0.09,0.33,0.13,0.52,0.13C7.47,31.43,7.64,31.39,7.8,31.3z"/>
		<path d="M9.49,31.42h0.96v0.29H9.13v-2.75h0.36V31.42z"/>
		<path d="M11.19,28.96v1.74c0,0.24,0.06,0.43,0.18,0.54c0.12,0.12,0.29,0.18,0.5,0.18c0.21,0,0.38-0.06,0.5-0.18
			c0.12-0.12,0.18-0.3,0.18-0.54v-1.74h0.36v1.74c0,0.23-0.05,0.42-0.14,0.58c-0.09,0.16-0.22,0.27-0.37,0.35
			c-0.16,0.08-0.33,0.11-0.53,0.11c-0.19,0-0.37-0.04-0.53-0.11c-0.16-0.08-0.28-0.19-0.37-0.35c-0.09-0.16-0.14-0.35-0.14-0.58
			v-1.74H11.19z"/>
		<path d="M15.2,28.96v0.29h-0.75v2.46h-0.36v-2.46h-0.75v-0.29H15.2z"/>
		<path d="M16,28.96v2.75h-0.36v-2.75H16z"/>
		<path d="M17.16,31.56c-0.21-0.12-0.38-0.29-0.5-0.5c-0.12-0.21-0.18-0.46-0.18-0.72c0-0.27,0.06-0.51,0.18-0.72
			c0.12-0.21,0.29-0.38,0.5-0.5c0.21-0.12,0.44-0.18,0.7-0.18c0.26,0,0.49,0.06,0.7,0.18c0.21,0.12,0.38,0.29,0.5,0.5
			c0.12,0.21,0.18,0.46,0.18,0.73c0,0.27-0.06,0.51-0.18,0.73c-0.12,0.21-0.29,0.38-0.5,0.5c-0.21,0.12-0.44,0.18-0.7,0.18
			C17.6,31.74,17.37,31.68,17.16,31.56z M18.37,31.3c0.15-0.09,0.27-0.22,0.36-0.38c0.09-0.17,0.13-0.36,0.13-0.58
			c0-0.22-0.04-0.41-0.13-0.58c-0.09-0.16-0.21-0.29-0.36-0.38c-0.15-0.09-0.33-0.13-0.52-0.13c-0.19,0-0.37,0.04-0.52,0.13
			c-0.15,0.09-0.27,0.22-0.36,0.38c-0.09,0.16-0.13,0.36-0.13,0.58c0,0.22,0.04,0.41,0.13,0.58c0.09,0.17,0.21,0.29,0.36,0.38
			c0.15,0.09,0.33,0.13,0.52,0.13C18.05,31.43,18.22,31.39,18.37,31.3z"/>
		<path d="M21.87,31.71h-0.36l-1.44-2.19v2.19h-0.36v-2.75h0.36l1.44,2.19v-2.19h0.36V31.71z"/>
		<path d="M22.33,29.19v-0.33h0.74v2.85h-0.36v-2.53H22.33z"/>
		<path d="M25.3,28.96v0.29h-1.2v0.93h0.97v0.29H24.1v1.24h-0.36v-2.75H25.3z"/>
		<path d="M26.28,31.56c-0.21-0.12-0.38-0.29-0.5-0.5c-0.12-0.21-0.18-0.46-0.18-0.72c0-0.27,0.06-0.51,0.18-0.72
			c0.12-0.21,0.29-0.38,0.5-0.5c0.21-0.12,0.44-0.18,0.7-0.18c0.26,0,0.49,0.06,0.7,0.18c0.21,0.12,0.38,0.29,0.5,0.5
			c0.12,0.21,0.18,0.46,0.18,0.73c0,0.27-0.06,0.51-0.18,0.73c-0.12,0.21-0.29,0.38-0.5,0.5c-0.21,0.12-0.44,0.18-0.7,0.18
			C26.73,31.74,26.49,31.68,26.28,31.56z M27.5,31.3c0.15-0.09,0.27-0.22,0.36-0.38c0.09-0.17,0.13-0.36,0.13-0.58
			c0-0.22-0.04-0.41-0.13-0.58c-0.09-0.16-0.21-0.29-0.36-0.38c-0.15-0.09-0.33-0.13-0.52-0.13c-0.19,0-0.37,0.04-0.52,0.13
			c-0.15,0.09-0.27,0.22-0.36,0.38c-0.09,0.16-0.13,0.36-0.13,0.58c0,0.22,0.04,0.41,0.13,0.58c0.09,0.17,0.21,0.29,0.36,0.38
			c0.15,0.09,0.33,0.13,0.52,0.13C27.17,31.43,27.35,31.39,27.5,31.3z"/>
	</g>
</g>
</svg>
